<?xml version="1.0" standalone="no"?>
<!DOCTYPE svg PUBLIC "-//W3C//DTD SVG 20010904//EN"
 "http://www.w3.org/TR/2001/REC-SVG-20010904/DTD/svg10.dtd">
<svg version="1.0" xmlns="http://www.w3.org/2000/svg"
 width="903.000000pt" height="277.000000pt" viewBox="0 0 903.000000 277.000000"
 preserveAspectRatio="xMidYMid meet">

<g transform="translate(0.000000,277.000000) scale(0.100000,-0.100000)"
fill="#000000" stroke="none">
<path d="M700 2304 c-188 -40 -325 -135 -393 -273 -30 -61 -32 -73 -32 -166 0
-87 3 -107 26 -155 14 -31 40 -72 58 -92 17 -20 31 -40 31 -44 0 -5 -30 -24
-68 -42 -221 -106 -331 -305 -293 -531 42 -257 296 -427 685 -461 317 -27 611
44 858 206 130 86 280 273 282 352 1 33 -2 37 -27 40 -22 3 -30 -3 -45 -29
-153 -280 -442 -452 -827 -490 -204 -20 -455 20 -606 96 -165 84 -260 238
-246 400 14 166 117 292 300 365 l75 30 54 -25 c139 -64 378 -94 489 -62 57
17 109 60 111 93 5 70 -42 107 -159 124 -79 11 -287 -2 -400 -26 -84 -17 -94
-14 -147 48 -53 61 -79 138 -74 218 11 166 143 295 355 345 102 25 318 17 418
-15 153 -48 266 -134 314 -238 21 -45 29 -53 49 -50 44 5 50 31 21 90 -72 146
-233 255 -436 294 -93 18 -287 17 -373 -2z m328 -753 c27 -15 25 -31 -9 -49
-53 -29 -389 4 -389 38 0 5 19 11 43 14 23 3 53 8 67 10 52 9 265 0 288 -13z"/>
<path d="M8444 2286 c-140 -62 -236 -480 -221 -966 3 -107 11 -228 17 -268 9
-61 9 -77 -3 -90 -8 -10 -33 -54 -56 -98 -106 -206 -275 -280 -401 -176 l-34
29 41 26 c112 71 163 143 170 241 9 112 -43 176 -144 176 -82 0 -143 -54 -177
-156 -27 -79 -125 -234 -190 -301 -46 -47 -70 -63 -100 -69 -55 -10 -100 14
-127 68 -20 39 -22 55 -19 183 7 287 7 297 -13 309 -15 9 -22 7 -37 -12 -14
-17 -20 -47 -25 -122 -7 -92 -11 -105 -47 -167 -106 -182 -216 -265 -302 -229
-20 8 -45 30 -56 48 -22 35 -23 72 -5 293 4 48 2 78 -7 95 -19 37 -74 60 -140
60 l-57 0 -6 38 c-17 99 -42 142 -82 142 -71 0 -157 -197 -105 -242 9 -9 36
-19 58 -23 l42 -6 -13 -49 c-33 -127 -151 -307 -226 -345 -42 -22 -83 -18
-117 10 -34 28 -78 122 -94 198 -10 49 -9 58 22 137 144 371 214 753 180 969
-20 120 -72 180 -145 167 -93 -18 -156 -144 -191 -386 -15 -109 -18 -462 -4
-560 5 -35 7 -66 5 -68 -2 -2 -12 1 -24 7 -31 17 -111 -5 -168 -44 -52 -37
-116 -118 -162 -205 -44 -83 -116 -176 -162 -210 -52 -37 -106 -41 -135 -9
-17 19 -19 38 -20 178 0 86 -4 171 -8 188 -10 44 -58 83 -102 83 -85 0 -155
-75 -290 -312 -33 -59 -63 -106 -65 -103 -3 2 0 60 7 127 17 170 17 241 -2
288 -18 45 -38 60 -83 60 -48 0 -96 -57 -159 -189 -68 -142 -111 -213 -166
-269 -51 -54 -84 -72 -131 -72 -29 0 -39 6 -56 32 -18 30 -20 47 -17 188 3
173 -5 211 -53 235 -36 19 -82 19 -117 1 -57 -30 -143 -144 -233 -312 -28 -52
-54 -93 -57 -90 -2 3 1 74 8 159 18 215 6 291 -51 311 -71 25 -115 -21 -214
-220 -41 -83 -93 -175 -115 -203 -76 -96 -173 -137 -264 -111 -41 11 -96 51
-96 69 0 5 20 21 44 35 93 54 167 168 166 255 -1 44 -37 109 -72 131 -35 21
-100 26 -141 11 -39 -15 -93 -77 -112 -129 -40 -112 -117 -234 -192 -304 -79
-73 -155 -84 -208 -28 -40 42 -46 95 -28 235 24 187 3 224 -131 234 l-71 6 -6
52 c-4 29 -15 67 -26 85 -16 27 -25 33 -53 33 -28 0 -39 -7 -65 -41 -41 -54
-69 -142 -56 -176 10 -27 29 -37 79 -42 35 -4 38 -23 17 -91 -21 -65 -15 -85
23 -85 25 0 32 6 45 43 9 23 19 56 22 72 15 66 13 65 66 65 63 0 92 -25 84
-73 -37 -230 -24 -324 55 -390 107 -91 268 -38 382 123 40 57 58 67 58 32 0
-9 13 -40 30 -68 72 -126 208 -174 347 -123 45 17 74 38 129 94 63 63 81 90
145 221 82 168 104 204 125 204 19 0 19 -77 -2 -298 -15 -159 -15 -174 0 -197
19 -29 69 -34 103 -10 12 8 49 67 82 130 142 271 238 376 273 300 8 -17 8 -52
1 -124 -22 -220 27 -321 156 -321 125 0 240 119 359 371 54 115 83 156 100
145 16 -10 15 -58 -4 -278 -16 -175 -16 -188 0 -212 20 -31 73 -35 104 -8 12
9 42 58 68 107 104 202 206 345 245 345 32 -1 44 -19 43 -67 -1 -26 -3 -97 -5
-158 -3 -96 -1 -116 18 -157 27 -60 71 -88 137 -88 69 0 124 30 194 104 l58
63 17 -48 c31 -85 115 -131 200 -108 51 13 130 90 166 162 13 26 27 47 31 47
3 0 16 -24 29 -54 29 -70 91 -141 137 -156 20 -7 58 -10 84 -8 118 12 254 178
326 398 l31 95 50 3 c80 5 97 -28 72 -138 -6 -25 -11 -81 -11 -125 -1 -98 26
-163 84 -205 104 -76 239 -34 357 110 24 30 47 54 50 53 3 -1 9 -18 13 -38 16
-77 73 -152 131 -174 46 -18 104 -13 155 13 51 26 141 115 187 184 l29 43 18
-50 c60 -161 241 -234 395 -160 61 29 148 118 193 197 19 34 38 62 42 62 4 0
11 -12 14 -27 12 -48 62 -146 95 -187 100 -120 259 -92 379 67 57 76 130 207
130 234 0 24 -30 46 -52 38 -7 -3 -35 -47 -63 -97 -62 -114 -151 -213 -206
-230 -33 -9 -45 -9 -73 5 -64 30 -121 128 -147 252 l-12 60 55 110 c110 218
191 440 227 621 53 267 28 515 -59 575 -36 25 -80 31 -116 15z m78 -93 c69
-79 57 -376 -26 -648 -55 -181 -162 -433 -178 -417 -15 15 -21 304 -9 467 24
313 74 537 135 598 22 22 59 22 78 0z m-2459 -131 c56 -62 43 -362 -28 -642
-26 -100 -89 -298 -99 -307 -11 -11 -14 2 -25 111 -34 341 15 752 99 836 25
25 32 25 53 2z m-3990 -859 c8 -46 -10 -64 -43 -43 -12 8 -12 13 3 44 21 46
33 45 40 -1z m4352 1 c7 -42 5 -47 -28 -42 -25 3 -25 3 -10 41 19 47 29 47 38
1z m-569 -183 l14 -81 -40 -85 c-84 -183 -170 -236 -239 -149 -26 34 -29 128
-5 199 25 72 95 139 166 160 31 9 62 23 69 31 6 8 14 12 16 10 3 -3 11 -41 19
-85z m-2859 51 c34 -22 34 -92 0 -158 -21 -40 -106 -116 -126 -112 -34 7 -36
138 -4 203 26 51 54 75 87 75 17 0 36 -4 43 -8z m4868 -12 c25 -28 16 -107
-19 -160 -27 -41 -99 -100 -122 -100 -18 0 -28 60 -21 125 6 58 37 128 64 144
30 17 78 13 98 -9z"/>
<path d="M7119 1581 c-20 -20 -29 -40 -29 -61 0 -96 105 -146 171 -81 64 65
20 171 -71 171 -33 0 -48 -6 -71 -29z m111 -51 c8 -14 8 -26 0 -40 -19 -35
-80 -20 -80 20 0 40 61 55 80 20z"/>
</g>
</svg>
