<?xml version="1.0" standalone="no"?>
<!DOCTYPE svg PUBLIC "-//W3C//DTD SVG 20010904//EN"
 "http://www.w3.org/TR/2001/REC-SVG-20010904/DTD/svg10.dtd">
<svg version="1.0" xmlns="http://www.w3.org/2000/svg"
 width="96.000000pt" height="96.000000pt" viewBox="0 0 96.000000 96.000000"
 preserveAspectRatio="xMidYMid meet">

<g transform="translate(0.000000,96.000000) scale(0.100000,-0.100000)"
fill="#000000" stroke="none">
<path d="M102 819 c-94 -47 -126 -165 -73 -273 29 -59 113 -150 227 -247 79
-67 86 -71 101 -56 16 15 15 20 -7 64 -48 96 -37 184 32 259 64 70 131 84 266
58 32 -6 32 -6 32 32 0 93 -73 171 -171 180 -46 5 -62 1 -111 -24 l-58 -29
-56 29 c-69 34 -123 36 -182 7z"/>
<path d="M484 546 c-64 -28 -97 -104 -75 -176 14 -47 80 -121 177 -201 l74
-61 63 50 c86 70 151 139 177 190 68 131 -70 261 -204 193 -38 -20 -38 -20
-74 0 -42 22 -94 24 -138 5z"/>
</g>
</svg>
