<svg height="512" viewBox="0 0 58 58" width="512" xmlns="http://www.w3.org/2000/svg"><g id="Page-1" fill="none" fill-rule="evenodd"><g id="133---Pinned-File" fill-rule="nonzero"><path id="Shape" d="m58 27v27c0 2.209139-1.790861 4-4 4h-50c-2.209139 0-4-1.790861-4-4v-36c0-2.209139 1.790861-4 4-4h41z" fill="#b0d3f0"/><path id="Shape" d="m58 27h-9c-2.209139 0-4-1.790861-4-4v-9z" fill="#90bae1"/><path id="Shape" d="m5 22c-.55228475 0-1-.4477153-1-1v-2c0-.5522847.44771525-1 1-1s1 .4477153 1 1v2c0 .5522847-.44771525 1-1 1z" fill="#ecf0f1"/><path id="Shape" d="m5 41c-.55228475 0-1-.4477153-1-1v-14c0-.5522847.44771525-1 1-1s1 .4477153 1 1v14c0 .5522847-.44771525 1-1 1z" fill="#ecf0f1"/><rect id="Rectangle-path" fill="#e64c3c" height="4" rx="2" width="18" x="20"/><rect id="Rectangle-path" fill="#e64c3c" height="4" rx="2" width="24" x="17" y="18"/><path id="Shape" d="m38 18c-5-5-3-14-3-14h-12s2 9-3 14z" fill="#c03a2b"/><path id="Shape" d="m31 36h-2-2v-14h4z" fill="#95a5a5"/><path id="Shape" d="m35 37h-12c-.5522847 0-1-.4477153-1-1s.4477153-1 1-1h12c.5522847 0 1 .4477153 1 1s-.4477153 1-1 1z" fill="#90bae1"/></g></g></svg>