<svg id="Capa_1" enable-background="new 0 0 497 497" height="512" viewBox="0 0 497 497" width="512" xmlns="http://www.w3.org/2000/svg"><path d="m222.138 296.075-21.213-21.213-42.426 42.426-10.607 31.82 31.82-10.607z" fill="#acd5df"/><path d="m492.607 142.279-21.213-21.213-21.213 21.213 21.213 21.213c5.858 5.858 15.355 5.858 21.213 0 5.857-5.857 5.857-15.355 0-21.213z" fill="#ff3e3a"/><path d="m471.393 142.279c5.858-5.858 5.858-15.355 0-21.213l-116.672-116.673c-5.858-5.858-15.355-5.858-21.213 0s-5.858 15.355 0 21.213l21.213 21.213 10.607 74.246 84.853 21.213c5.857 5.859 15.354 5.859 21.212.001z" fill="#ff5d34"/><path d="m450.18 142.279-21.213-21.213-179.804 126.771 86.893 23.253z" fill="#cc3245"/><path d="m354.721 46.82-128.81 114.124 23.252 86.893 65.68 2.04 114.124-128.811z" fill="#ff3e3a"/><path d="m336.054 271.085-21.213-21.213-39.669 141.662 15.767 15.767c3.044 3.044 8.017 2.901 10.899-.297 34.19-37.942 45.595-89.137 34.216-135.919z" fill="#ff3e3a"/><path d="m319.105 284.994c.12 38.544-14.524 77.131-43.933 106.54l-185.473-185.473c-3.044-3.044-2.901-8.017.297-10.899 37.941-34.19 89.137-45.595 135.918-34.216l88.926 88.926c2.801 11.526 4.222 23.327 4.265 35.122z" fill="#ff5d34"/><path d="m158.499 317.288-144.28 144.28c-7.298 7.298-12.165 16.571-14.083 26.563-.989 5.152 3.581 9.722 8.733 8.733 9.992-1.917 19.265-6.785 26.563-14.083l144.28-144.28z" fill="#c4f3ff"/></svg>